<svg xmlns="http://www.w3.org/2000/svg" width="10" height="10" viewBox="0 0 10 10" fill="none">
    <g clip-path="url(#clip0_10485_100358)">
        <path
            d="M7.24981 7.2967C7.10187 7.37568 6.94777 7.3891 6.81782 7.43446C6.8049 7.43897 6.78737 7.42453 6.79197 7.41316C6.883 7.18792 7.03791 7.04242 7.2106 6.89266C7.58047 6.57276 7.81834 6.1596 7.83082 5.64363C7.83114 5.63006 7.80918 5.61918 7.79974 5.62819C7.64407 5.77693 7.50527 5.92215 7.25818 5.96781C7.24239 5.97072 7.22638 5.95122 7.23723 5.94228C7.66587 5.58935 7.91831 4.8492 7.849 4.30927C7.78214 3.79034 7.36154 3.11943 7.60692 2.60881C7.61204 2.59816 7.59713 2.58361 7.58347 2.58611C7.20628 2.65517 7.20052 3.27689 6.75194 3.4134C6.73782 3.4177 6.72054 3.40127 6.72735 3.39019C6.87717 3.14632 6.89149 2.85532 6.84514 2.54336C6.69938 1.56085 5.95956 1.34863 6.15598 0.767041C6.15955 0.756474 6.1454 0.743111 6.13255 0.745375C5.61466 0.836662 5.76518 1.39335 5.82255 1.73504C5.90986 2.25483 5.72112 2.68713 5.27437 2.92629L4.65421 3.25812C4.40719 3.39025 4.25124 3.57732 4.16768 3.83676C4.16378 3.84886 4.142 3.8453 4.13553 3.83145C3.88625 3.29773 4.78236 3.0373 4.6159 2.81784C4.61062 2.81088 4.60032 2.80798 4.5933 2.81058C4.38885 2.8863 4.16236 2.89759 3.93925 2.95139C3.44465 3.07041 3.07661 3.38243 2.93445 3.80455C2.83358 4.10479 2.99606 4.59125 2.66932 4.70466C2.60598 4.72669 2.54446 4.74311 2.47707 4.78257C2.46671 4.78864 2.44896 4.77853 2.44818 4.76633C2.43148 4.5077 2.77819 4.30224 2.60502 4.03641C2.59779 4.02532 2.58111 4.02209 2.57521 4.03068C2.48283 4.16504 2.33867 4.22674 2.19702 4.30464L1.8388 4.50138C1.79725 4.52421 1.76438 4.55577 1.74226 4.59408L1.5733 4.88672C1.55946 4.9107 1.54984 4.93713 1.54505 4.96525C1.43727 5.59742 1.52537 5.78508 1.849 6.47598C1.85073 6.47967 1.854 6.48314 1.85804 6.48547L2.17772 6.67004C2.19212 6.67835 2.20613 6.66913 2.19915 6.65605C1.79149 5.8916 1.78341 5.85576 2.03224 5.16201C2.03535 5.15335 2.04924 5.15221 2.05897 5.1601C2.11505 5.20561 2.10199 5.24897 2.15426 5.302C2.1634 5.31128 2.17847 5.31145 2.18236 5.30254C2.25969 5.12536 2.45223 5.05185 2.66482 5.02703C3.56738 4.922 3.07664 4.25169 3.47971 3.97853C3.49071 3.97108 3.51125 3.98333 3.50936 3.99629C3.45676 4.35718 3.7826 4.57833 3.78083 5.08865C3.78078 5.10327 3.80465 5.11366 3.81264 5.10246C4.20237 4.55559 4.78102 4.69342 5.12342 4.24449C5.13071 4.23492 5.15093 4.24159 5.15496 4.25488C5.22124 4.47372 5.12167 4.61646 5.06567 4.80425C5.06236 4.81534 5.07847 4.82881 5.09126 4.82562C5.19359 4.80018 5.24269 4.71066 5.28471 4.63085C5.58461 4.062 6.33208 4.53783 6.84614 4.41304C6.85877 4.40997 6.87395 4.42209 6.87155 4.43334C6.80577 4.74146 6.29961 4.63841 5.88836 4.83591C5.43907 5.05233 5.2802 5.55764 5.62783 5.72031C5.86413 5.83095 6.01432 5.59948 6.00691 5.37986C5.99426 5.01394 6.47169 5.25973 6.52577 4.87195C6.52758 4.85898 6.54944 4.86021 6.55753 4.87386C6.63486 5.00424 6.62947 5.12841 6.55673 5.23341L6.38263 5.48459C6.18353 5.77133 6.7013 6.0709 6.54161 6.48773C6.50417 6.58463 6.41055 6.63222 6.36935 6.73899C6.36512 6.74994 6.38086 6.76425 6.39391 6.76097C6.52043 6.72918 6.61051 6.66732 6.7098 6.60514C6.72228 6.59732 6.74398 6.61327 6.73809 6.62592C6.57273 6.98105 6.40088 7.31151 6.14364 7.60711C6.13719 7.61452 6.1446 7.62737 6.15724 7.63116C6.26655 7.66391 6.35549 7.63846 6.46817 7.69525C6.47796 7.70018 6.48236 7.71093 6.47766 7.71732C6.19671 8.09905 5.73621 8.28432 5.25636 8.42416C5.24496 8.42748 5.24647 8.4418 5.259 8.44903L5.6443 8.67148C5.64705 8.67307 5.65006 8.67413 5.65302 8.67454C6.13651 8.74222 6.56513 8.62342 6.84441 8.34439L6.92659 8.26216C6.98115 8.20756 7.02773 8.14698 7.06569 8.08122L7.07043 8.07301C7.14833 7.93809 7.19614 7.78734 7.21911 7.62774C7.23446 7.52104 7.26105 7.41873 7.27804 7.31527C7.28004 7.30305 7.26119 7.29062 7.24981 7.2967ZM3.3919 3.76294C3.37382 3.469 3.57163 3.30767 3.86576 3.22964C3.87843 3.22627 3.89436 3.23954 3.89104 3.25061C3.73604 3.76861 3.7977 3.51748 3.42131 3.77804C3.41147 3.78485 3.39266 3.77528 3.3919 3.76294ZM6.04516 3.27266C5.89783 3.35814 5.74299 3.42799 5.62402 3.53951C5.4817 3.65065 5.43087 3.80024 5.44959 4.00737C5.4508 4.02067 5.43183 4.02327 5.42059 4.01135C5.20835 3.78628 5.17745 3.51805 5.33843 3.33369C5.47128 3.1338 5.70026 3.02002 5.8967 2.87425C6.10718 2.75025 6.20884 2.56797 6.1825 2.31525C6.18101 2.3009 6.20319 2.29965 6.21315 2.31344C6.49647 2.70603 6.40996 3.10487 6.04516 3.27266ZM6.71536 4.17073C6.57022 3.85269 7.08631 3.79458 7.25815 3.59392C7.2661 3.58463 7.28662 3.59288 7.28921 3.60625C7.35648 3.95297 7.02135 3.97694 6.74392 4.18119C6.73568 4.18726 6.7203 4.18158 6.71536 4.17073ZM6.93362 5.38878C6.82207 5.45071 6.74415 5.52191 6.64804 5.61931C6.63787 5.62961 6.61367 5.61566 6.61749 5.60169C6.7181 5.2345 6.64898 5.20387 7.03887 4.98565C7.21875 4.88472 7.33994 4.74875 7.34119 4.53399C7.34127 4.52104 7.36193 4.52069 7.37164 4.53323C7.70487 4.9634 7.21083 5.20371 6.93362 5.38878Z"
            fill="#FE673E" />
        <path
            d="M5.22966 8.43295L4.75385 8.15824C5.09218 7.99777 5.3634 7.7786 5.52068 7.47087C5.41217 7.4908 5.37302 7.55749 5.27112 7.56293C5.30164 7.42171 5.4333 7.3847 5.48589 7.25492C5.40997 7.23442 5.38898 7.2969 5.30805 7.26326C5.81806 6.87937 5.48483 6.60754 5.82638 6.31537C5.91475 6.23977 5.97342 6.15361 5.96868 6.03689C5.44807 6.02894 5.64339 6.50113 5.31455 6.46829C5.20306 6.45716 5.03698 6.38476 4.96291 6.26401C4.76422 5.94013 4.84932 5.61281 5.1077 5.43668C5.31546 5.29505 5.35205 5.08799 5.39731 4.81705C5.19469 4.92906 5.20709 5.21156 4.96576 5.28366C4.64485 5.37953 4.8699 5.74526 4.52502 6.05774C4.48193 6.09679 4.41917 6.10272 4.36201 6.06762C4.18966 5.96178 4.39961 5.71287 4.4782 5.63362C4.68132 5.42881 4.50729 5.19385 4.62435 4.91375C4.45361 4.94783 4.40583 5.07218 4.36468 5.19385C4.18287 5.73146 3.67246 5.24763 3.486 5.81994C3.45037 5.63028 3.53701 5.47682 3.38046 5.26586C3.31237 5.69655 2.95818 5.55924 2.86676 5.97638C2.8448 6.07657 2.83454 6.17499 2.75341 6.22875C2.74945 6.15667 2.72278 6.14496 2.70045 6.19142C2.55176 6.42204 2.52575 6.69676 2.69712 6.97079L2.21946 6.69502C1.78852 5.88732 1.77922 5.86762 2.03826 5.14631C2.12703 5.20251 2.09086 5.25387 2.1751 5.32177C2.24686 5.1313 2.4451 5.05354 2.66501 5.02793C3.59336 4.91982 3.04727 4.21361 3.51699 3.95693C3.42923 4.35737 3.81096 4.57745 3.77905 5.15328C4.17553 4.53695 4.79315 4.71349 5.14251 4.21936C5.23614 4.47002 5.11476 4.62037 5.05792 4.8323C5.18344 4.81971 5.23852 4.71988 5.28493 4.63179C5.5906 4.05173 6.36177 4.55779 6.87632 4.40595C6.83571 4.74857 6.31177 4.63339 5.88838 4.83702C5.43901 5.05314 5.28016 5.55842 5.62785 5.72131C5.86419 5.83204 6.01454 5.60041 6.00697 5.38067C5.99394 5.00293 6.50364 5.27743 6.52957 4.8326C6.63522 4.97811 6.63753 5.11804 6.55686 5.23428L6.38257 5.48543C6.18354 5.77223 6.70119 6.0718 6.54147 6.48871C6.50111 6.59406 6.39367 6.64119 6.35981 6.76968C6.52776 6.7364 6.63156 6.65125 6.76268 6.5736C6.58674 6.95511 6.40794 7.30894 6.1304 7.62305C6.25851 7.67176 6.35585 7.6313 6.48655 7.70599C6.20147 8.10327 5.72418 8.29083 5.22966 8.43295Z"
            fill="#FE9A50" />
        <path
            d="M4.75396 8.15809L2.69724 6.97064C2.52587 6.6966 2.55188 6.42189 2.70057 6.19126C2.7229 6.14481 2.74957 6.15651 2.75353 6.2286C2.83466 6.17484 2.84492 6.07642 2.86688 5.97623C2.95831 5.55909 3.31249 5.6964 3.38058 5.26571C3.53713 5.47667 3.4505 5.63013 3.48612 5.81978C3.67259 5.24748 4.183 5.73131 4.36481 5.1937C4.40595 5.07203 4.45373 4.94768 4.62447 4.9136C4.50741 5.1937 4.68144 5.42866 4.47832 5.63347C4.39973 5.71272 4.18978 5.96163 4.36214 6.06747C4.41929 6.10256 4.48205 6.09664 4.52514 6.05759C4.87003 5.74511 4.64497 5.37938 4.96588 5.28351C5.20721 5.21141 5.19481 4.92891 5.39743 4.8169C5.35217 5.08784 5.31558 5.2949 5.10782 5.43652C4.84945 5.61265 4.76434 5.93998 4.96303 6.26386C5.03711 6.3846 5.20319 6.45701 5.31467 6.46814C5.64351 6.50098 5.44819 6.02879 5.9688 6.03674C5.97354 6.15346 5.91487 6.23962 5.8265 6.31522C5.48496 6.60739 5.81819 6.87921 5.30817 7.26311C5.3891 7.29675 5.41009 7.23427 5.48601 7.25477C5.43342 7.38456 5.30176 7.42156 5.27124 7.56278C5.37315 7.55734 5.41229 7.49065 5.5208 7.47072C5.36353 7.77845 5.09229 7.99761 4.75396 8.15809Z"
            fill="#FECB4D" />
        <path
            d="M7.43778 2.45223C7.16723 2.02038 8.0508 2.1347 8.106 1.46504C8.11887 1.30894 7.99256 1.15014 8.04224 0.980469C8.29952 1.41637 8.61561 1.74094 8.3992 2.08962C8.17863 2.44501 7.61619 2.18063 7.43778 2.45223Z"
            fill="url(#paint0_linear_10485_100358)" />
        <path
            d="M4.45285 2.60581L4.50144 2.0991C4.52625 1.84042 4.66421 1.60455 4.94461 1.53782C5.06691 1.50872 5.19446 1.52067 5.29609 1.44946C5.3466 1.60372 5.35777 1.81176 5.20686 1.89622C4.64313 2.21169 5.15771 2.5207 4.45285 2.60581Z"
            fill="url(#paint1_linear_10485_100358)" />
        <path
            d="M1.63388 1.69595L1.2872 2.06867C1.11021 2.25895 1.02539 2.5187 1.16163 2.7727C1.22105 2.88349 1.31466 2.97094 1.32888 3.09422C1.47777 3.02959 1.64078 2.89984 1.60376 2.73091C1.46546 2.09989 2.03816 2.27958 1.63388 1.69595Z"
            fill="#FE673E" />
        <path
            d="M6.02506 0.465829C5.98157 0.508436 5.58414 0.908332 5.54852 0.777081C5.54521 0.76489 5.56875 0.747405 5.56652 0.729307C5.51289 0.294727 5.95864 0.357867 6.11126 0.0283756C6.20917 0.211047 6.13746 0.355716 6.02506 0.465829Z"
            fill="url(#paint2_linear_10485_100358)" />
        <path
            d="M3.51734 0.607058C3.32476 0.989165 3.092 1.08154 3.05106 0.974223C3.04726 0.964255 3.20793 0.685359 3.20793 0.685359C3.20793 0.685359 3.32757 0.503896 3.3297 0.0179028C3.41874 0.149646 3.57735 0.465153 3.51734 0.607058Z"
            fill="#FE673E" />
        <path
            d="M6.59759 5.67104C6.72826 5.23767 6.62578 5.21715 7.03882 4.98588C7.22975 4.87898 7.35439 4.73265 7.34023 4.49507C7.73401 4.94944 7.21915 5.19851 6.93373 5.38897C6.80354 5.46151 6.71906 5.54655 6.59759 5.67104Z"
            fill="#FE9A50" />
        <path
            d="M6.72689 4.1951C6.53721 3.84121 7.1322 3.79591 7.27986 3.56609C7.38409 3.95993 7.01805 3.97075 6.72689 4.1951Z"
            fill="#FE9A50" />
        <path
            d="M3.9 3.22177C3.72975 3.79197 3.80798 3.50144 3.3945 3.79838C3.35744 3.47101 3.5758 3.29925 3.9 3.22177Z"
            fill="#FE9A50" />
        <path
            d="M5.45363 4.04586C5.21194 3.81423 5.16929 3.52836 5.33828 3.33477C5.47132 3.13481 5.70024 3.021 5.8967 2.87542C6.12085 2.74314 6.22171 2.54457 6.17542 2.26518C6.50299 2.67329 6.42505 3.09894 6.04499 3.27369C5.89781 3.35937 5.74302 3.429 5.62411 3.54067C5.4732 3.65817 5.42496 3.8191 5.45363 4.04586Z"
            fill="#FE9A50" />
        <path
            d="M8.37372 4.49588C8.20001 4.28495 8.25068 4.0266 8.46133 3.87674L8.95131 3.52815C9.07855 3.43807 9.1512 3.328 9.19683 3.16269C9.40028 3.48293 9.30776 3.84112 9.00131 4.01426C8.85615 4.09626 8.71224 4.1722 8.57699 4.2678C8.49279 4.31981 8.45064 4.38022 8.37372 4.49588Z"
            fill="url(#paint3_linear_10485_100358)" />
        <mask id="mask0_10485_100358" style="mask-type:luminance" maskUnits="userSpaceOnUse" x="0" y="0" width="10"
            height="10">
            <path d="M10 0H0V10H10V0Z" fill="white" />
        </mask>
        <g mask="url(#mask0_10485_100358)">
            <mask id="mask1_10485_100358" style="mask-type:luminance" maskUnits="userSpaceOnUse" x="-1" y="-1"
                width="12" height="12">
                <path d="M11 -1H-1V11H11V-1Z" fill="white" />
            </mask>
            <g mask="url(#mask1_10485_100358)">
                <path
                    d="M2.07961 3.2418C2.07961 3.2418 1.77024 3.6332 1.87336 5.40273C1.87336 5.40273 1.19602 7.13711 1.42571 8.02305C1.65539 8.90664 2.55071 8.86211 2.55071 8.86211C2.55071 8.86211 3.98743 10.1254 5.08899 9.01211C6.19289 7.89648 4.17024 3.57695 4.17024 3.57695L3.91711 2.08398C3.91711 2.08398 3.64055 2.30195 3.67571 3.73867C3.71086 5.17539 3.11321 4.16289 3.11321 4.16289L2.07961 3.2418Z"
                    fill="#3C2D0C" />
                <path
                    d="M2.19467 4.80604L1.81499 5.87479L1.6767 6.62245C1.6767 6.62245 1.20561 8.28886 3.14858 8.26542C3.14858 8.26542 4.66499 9.62245 5.65405 8.71308L5.91889 8.42479L6.37827 7.71229L7.13764 5.44823C7.13764 5.44823 6.89624 3.89667 5.36811 3.25448C5.36811 3.25448 5.24155 3.18651 5.01186 3.27792C5.01186 3.27792 4.37905 1.85292 3.97827 2.02636C3.97827 2.02636 3.63374 2.20917 3.93139 3.61308L3.39233 3.85448C3.39233 3.85448 2.8017 2.73417 2.25561 2.95917C1.74702 3.16308 2.19467 4.80604 2.19467 4.80604Z"
                    fill="url(#paint4_linear_10485_100358)" />
                <path
                    d="M4.15834 2.72689L4.20521 3.34799C4.20521 3.34799 4.24037 3.70424 4.61771 3.57767C4.72553 3.54252 4.81928 3.46752 4.8099 3.34564C4.80287 3.25424 4.73959 3.16986 4.6974 3.09252C4.62006 2.94486 4.55678 2.78783 4.46537 2.64486C4.4185 2.5722 4.3224 2.41049 4.21693 2.42924C4.21693 2.42924 4.13725 2.4058 4.15834 2.72689Z"
                    fill="#EFB99D" />
                <path
                    d="M2.49921 3.42046C2.50624 3.41577 2.66093 3.22124 2.98202 3.69467C3.30312 4.16811 3.2703 4.10717 3.2703 4.10717C3.2703 4.10717 3.44374 4.29702 3.08984 4.54077C3.01249 4.59702 2.92812 4.64389 2.83905 4.68139C2.7828 4.70249 2.72421 4.71421 2.66562 4.71421C2.59765 4.71186 2.56718 4.67671 2.55077 4.61343C2.49687 4.40718 2.43593 4.20092 2.40546 3.98999C2.38202 3.82592 2.33515 3.52592 2.49921 3.42046Z"
                    fill="#EFB99D" />
                <path
                    d="M6.23032 4.37656C6.23032 4.48906 6.06626 4.58047 5.86235 4.58047C5.65845 4.58047 5.49438 4.48906 5.49438 4.37656C5.49438 4.26406 5.66313 4.09766 5.8647 4.09766C6.06626 4.09766 6.23032 4.26406 6.23032 4.37656Z"
                    fill="#FBFBFB" />
                <path
                    d="M4.10818 5.25608C4.21719 5.06344 4.20511 4.85043 4.08119 4.78031C3.95727 4.71018 3.76845 4.8095 3.65943 5.00213C3.55042 5.19477 3.5625 5.40778 3.68642 5.47791C3.81034 5.54803 3.99917 5.44871 4.10818 5.25608Z"
                    fill="#FBFBFB" />
                <path
                    d="M4.62947 6.18566L5.63493 5.66301C5.63493 5.66301 6.8865 5.0091 7.19118 5.51301C7.49587 6.01691 7.19118 6.78801 7.19118 6.78801C7.19118 6.78801 7.05993 7.69035 6.13884 7.77004L5.64431 7.83801L5.0115 7.85441C5.0115 7.85441 3.99431 7.91301 3.24665 7.35988L3.00993 7.0716C3.00993 7.0716 2.53415 6.41769 2.86697 5.9466C3.19978 5.47551 4.33884 6.20441 4.33884 6.20441C4.33884 6.20441 4.49822 6.29113 4.62947 6.18566Z"
                    fill="#FBFBFB" />
                <path
                    d="M4.58283 5.48835C4.56174 5.49069 4.54064 5.49303 4.51955 5.49538C4.52189 5.50241 4.52424 5.50944 4.52424 5.51882C4.52424 5.59147 4.40939 5.65241 4.26642 5.6571C4.26642 5.66413 4.26408 5.66881 4.26642 5.67585C4.27345 5.76491 4.42814 5.82585 4.60861 5.81178C4.79142 5.79772 4.93439 5.71335 4.92736 5.62428C4.91799 5.53522 4.76564 5.47428 4.58283 5.48835Z"
                    fill="black" />
                <path
                    d="M5.85285 5.17585C5.83175 5.17819 5.81066 5.18053 5.78957 5.18288C5.79191 5.18991 5.79425 5.19694 5.79425 5.20632C5.79425 5.27897 5.67941 5.33991 5.53644 5.3446C5.53644 5.35163 5.5341 5.35631 5.53644 5.36335C5.54347 5.45241 5.69816 5.51335 5.87863 5.49928C6.06144 5.48522 6.20441 5.40085 6.19738 5.31178C6.19035 5.22272 6.03566 5.16178 5.85285 5.17585Z"
                    fill="black" />
                <path
                    d="M6.27018 5.54596C6.27018 5.54596 5.76627 5.69361 5.79674 5.97721C5.82721 6.2608 6.43424 6.40846 6.43424 6.40846C6.43424 6.40846 6.5983 6.47408 6.69205 6.31705C6.7858 6.16236 6.92408 5.95143 6.88658 5.64908C6.88658 5.64908 6.87486 5.42408 6.27018 5.54596Z"
                    fill="black" />
            </g>
        </g>
    </g>
    <defs>
        <linearGradient id="paint0_linear_10485_100358" x1="7.36784" y1="2.41381" x2="8.51587" y2="2.50453"
            gradientUnits="userSpaceOnUse">
            <stop stop-color="#FFD700" />
            <stop offset="1" stop-color="#FFA500" />
        </linearGradient>
        <linearGradient id="paint1_linear_10485_100358" x1="4.28919" y1="2.51309" x2="5.12354" y2="2.65273"
            gradientUnits="userSpaceOnUse">
            <stop stop-color="#FFD700" />
            <stop offset="1" stop-color="#FFA500" />
        </linearGradient>
        <linearGradient id="paint2_linear_10485_100358" x1="5.50886" y1="0.768379" x2="6.02129" y2="0.867348"
            gradientUnits="userSpaceOnUse">
            <stop stop-color="#FFD700" />
            <stop offset="1" stop-color="#FFA500" />
        </linearGradient>
        <linearGradient id="paint3_linear_10485_100358" x1="8.22014" y1="4.40917" x2="9.1338" y2="4.56373"
            gradientUnits="userSpaceOnUse">
            <stop stop-color="#FFD700" />
            <stop offset="1" stop-color="#FFA500" />
        </linearGradient>
        <linearGradient id="paint4_linear_10485_100358" x1="2.47245" y1="9.03433" x2="8.01961" y2="5.24386"
            gradientUnits="userSpaceOnUse">
            <stop stop-color="#FFD700" />
            <stop offset="1" stop-color="#FFA500" />
        </linearGradient>
        <clipPath id="clip0_10485_100358">
            <rect width="10" height="10" fill="white" />
        </clipPath>
    </defs>
</svg>